<?xml version="1.0" standalone="yes"?>
<svg xmlns="http://www.w3.org/2000/svg" width="179" height="282">
<path style="fill:#fdfdfd; stroke:none;" d="M0 0L0 235L12 235L12 245L0 245L0 282L57 282L59 269L69 269C66.9513 272.861 66.2556 276.425 71 278L77 269L81 279L75 279L76 276L73 276L74 279L69 279L69 282L179 282L179 245L173 242L173 245L162 245L162 235L175 237L179 235L179 0L171 0C174.398 14.2715 172 31.3545 172 46L172 135C172 146.219 176.721 171.642 167.891 179.772C162.405 184.823 152.887 183 146 183C125.035 183 101.44 177.209 91 200L88 200C77.5603 177.209 53.9654 183 33 183C26.1131 183 16.5951 184.823 11.1088 179.772C2.27853 171.642 7 146.219 7 135L7 46C7 31.3544 4.60224 14.2715 8 0L0 0z"/>
<path style="fill:#c22125; stroke:none;" d="M8.60339 1.02777C5.06125 3.83319 7 14.9131 7 19L7 72L7 121C7 127.372 5.9496 135.178 12.0548 139.258C20.7252 145.051 33.8703 137.561 42.9961 142.179C48.2821 144.854 52.9237 156.793 58.9252 156.793C64.275 156.793 69.591 145.401 74.0008 142.603C79.1613 139.33 88.1162 141 94 141L147 141C153.116 141 162.867 142.855 167.852 138.566C172.209 134.818 171 128.14 171 123C171 109.822 169.921 96.1189 171.17 83C173.056 63.1833 172 42.9193 172 23C172 17.77 174.204 5.87433 170.821 1.60339C168.832 -0.908325 163.793 0.000183105 161 0L135 0L42 0C34.6516 0 14.4041 -3.56647 8.60339 1.02777z"/>
<path style="fill:#a85b5c; stroke:none;" d="M171 1L172 2L171 1M171 80L171 175L172 175L172 109L171 80M7 83L7 89L8 89L7 83M7 133L7 175L8 175C8 163.043 11.6107 143.988 7 133z"/>
<path style="fill:#31211f; stroke:none;" d="M8 136C9.17015 151.382 31.5512 142.038 40.9853 145.603C48.0929 148.29 50.2074 159.336 58 160.623C66.1491 161.97 70.0812 148.167 77.0008 145.603C81.6233 143.891 88.1312 145 93 145L128 145C138.412 145 169.9 150.462 171 136C160.96 142.523 150.645 141 139 141C118.911 141 98.0062 139.317 78 141.059C69.3217 141.814 66.1252 155.944 58.9252 155.944C52.8651 155.944 48.7928 143.983 42.9961 141.742C30.9634 137.09 19.8012 143.667 8 136z"/>
<path style="fill:#c22125; stroke:none;" d="M8 141C8 149.973 3.92461 172.852 10.4336 179.581C14.7586 184.052 22.386 183 28 183C41.8366 183 56.2193 181.859 70 183.059C79.2838 183.867 81.2596 196.973 89.0802 198.079C95.4478 198.979 100.679 184.287 108 183.148C121.98 180.974 137.843 183 152 183C157.612 183 165.423 183.923 169.258 178.775C174.897 171.204 171 150.238 171 141C161.039 146.089 150.928 145 140 145C120.081 145 97.6624 142.085 78 145.148C69.6513 146.449 67.0067 160.364 58.9961 160.364C51.492 160.364 48.4842 148.119 41.9606 145.603C30.9606 141.362 19.3473 146.798 8 141z"/>
<path style="fill:#a5a4a4; stroke:none;" d="M7 175L8 176L7 175M171 175L172 176L171 175z"/>
<path style="fill:#a85b5c; stroke:none;" d="M8 177L9 178L8 177z"/>
<path style="fill:#a5a4a4; stroke:none;" d="M170 177L171 178L170 177z"/>
<path style="fill:#a85b5c; stroke:none;" d="M12 181L13 182L12 181M166 181L167 182L166 181z"/>
<path style="fill:#a5a4a4; stroke:none;" d="M14 182L15 183L14 182z"/>
<path style="fill:#a85b5c; stroke:none;" d="M15 182L16 183L15 182M163 182L164 183L163 182z"/>
<path style="fill:#a5a4a4; stroke:none;" d="M164 182L165 183L164 182M74 183L75 184L74 183M104 183L105 184L104 183M78 187L79 188L78 187M100 187L101 188L100 187M79 188L80 189L79 188M99 188L100 189L99 188z"/>
<path style="fill:#a85b5c; stroke:none;" d="M80 189L81 190L80 189M98 189L99 190L98 189M81 190L82 191L81 190M97 190L98 191L97 190z"/>
<path style="fill:#a5a4a4; stroke:none;" d="M83 193L84 194L83 193M95 193L96 194L95 193M84 194L85 195L84 194M94 194L95 195L94 194z"/>
<path style="fill:#a85b5c; stroke:none;" d="M85 195L86 196L85 195M93 195L94 196L93 195M86 196L87 197L86 196M92 196L93 197L92 196z"/>
<path style="fill:#a5a4a4; stroke:none;" d="M88 199L89 200L88 199z"/>
<path style="fill:#a85b5c; stroke:none;" d="M89 199L90 200L89 199z"/>
<path style="fill:#a5a4a4; stroke:none;" d="M90 199L91 200L90 199M28 217L28 218L37 218L28 217M38 218L38 219C41.5487 218.193 43.9035 217.777 46 221C47.0905 216.145 41.0703 217.103 38 218M48 218L48 219L60 218L48 218M66.6667 217.333L67.3333 217.667L66.6667 217.333M73 217L73 218L79 218L73 217M82 221L83 221L83 218L92 218L91 221C94.5606 217.629 84.0661 214.775 82 221M97.6667 217.333L98.3333 217.667L97.6667 217.333M104 218L104 219L109 218L104 218M115 217L115 218L119 219L119 218L115 217M120 218L120 228L121 228L121 218L128 218L120 218M130 217L130 218L136 219L130 217M137 217L137 218L142 218L137 217M143 217L143 218L152 218L143 217z"/>
<path style="fill:#31211f; stroke:none;" d="M28 218L26 230L27 230C30.1987 226.747 32.7247 226.923 36 230L37 230L37 219L28 218M39 218L40 227L47 225L42 226L45 223L45 222L42 219L46 220L39 218M49 218C49.9565 221.557 48.9466 226.131 53 227L52 219L57 220L56 227C60.0533 226.131 59.0435 221.557 60 218L49 218z"/>
<path style="fill:#a85b5c; stroke:none;" d="M65 218L66 219L65 218z"/>
<path style="fill:#31211f; stroke:none;" d="M65 219L71 227L68 218L65 219M73 218L74 227C82.6338 224.264 82.2689 218.033 73 218M83 220L86 219L86 227L89 227L89 219L92 220C89.6528 217.314 85.3472 217.314 83 220z"/>
<path style="fill:#a85b5c; stroke:none;" d="M96 218L97 219L96 218z"/>
<path style="fill:#31211f; stroke:none;" d="M96 219L102 227L99 218L96 219M105 218L106 225L107 225L107 221L108 221L112 227L113 223L105 218M113 222L118 227L118 218L113 222M121 218L121 227L129 226L129 225L124 226L127 223L127 222L124 219L128 220L121 218z"/>
<path style="fill:#a85b5c; stroke:none;" d="M130 218L131 219L130 218z"/>
<path style="fill:#31211f; stroke:none;" d="M131 218L131 227L134 223L138 223L141 227L141 218L137 218L138 222L134 222L135 218L131 218z"/>
<path style="fill:#a85b5c; stroke:none;" d="M141 218L142 219L141 218z"/>
<path style="fill:#31211f; stroke:none;" d="M143 221L144 221L147 219L146 227C149.987 226.146 149 222.511 149 219L152 220C150.093 216.69 143.858 216.995 143 221z"/>
<path style="fill:#a85b5c; stroke:none;" d="M152 218L153 219L152 218M30 219L31 220L30 219z"/>
<path style="fill:#fdfdfd; stroke:none;" d="M31 219L30 226C33.7158 225.204 33 222.363 33 219L31 219z"/>
<path style="fill:#a85b5c; stroke:none;" d="M35 219L35 226L36 226L35 219z"/>
<path style="fill:#a5a4a4; stroke:none;" d="M42 219L42 222L43 222L42 219M52 219L52 226L53 226L52 219M68 219L69 220L68 219z"/>
<path style="fill:#fdfdfd; stroke:none;" d="M77 219L79 222L77 219z"/>
<path style="fill:#a5a4a4; stroke:none;" d="M78 219L79 220L78 219z"/>
<path style="fill:#a85b5c; stroke:none;" d="M81 219L82 220L81 219z"/>
<path style="fill:#a5a4a4; stroke:none;" d="M99 219L100 220L99 219M109 219L110 220L109 219M113 219L114 220L113 219M131 219L131 226L132 226L131 219M140 219L140 226L141 226L140 219M146 219L146 226L147 226L146 219M152 219L151 221L152 219M30 220L30 224L31 224L30 220z"/>
<path style="fill:#a85b5c; stroke:none;" d="M56 220L57 221L56 220z"/>
<path style="fill:#a5a4a4; stroke:none;" d="M64 220L67 222L67 221L64 220z"/>
<path style="fill:#a85b5c; stroke:none;" d="M65.6667 220.333L66.3333 220.667L65.6667 220.333M83 220L84 221L83 220z"/>
<path style="fill:#a5a4a4; stroke:none;" d="M95 220L98 222L98 221L95 220z"/>
<path style="fill:#a85b5c; stroke:none;" d="M96.6667 220.333L97.3333 220.667L96.6667 220.333z"/>
<path style="fill:#a5a4a4; stroke:none;" d="M105 220L105 225L106 225L105 220M127 220L128 221L127 220z"/>
<path style="fill:#a85b5c; stroke:none;" d="M152 220L153 221L152 220z"/>
<path style="fill:#31211f; stroke:none;" d="M64 221L62 227L64 221z"/>
<path style="fill:#a5a4a4; stroke:none;" d="M69 221L70 222L69 221z"/>
<path style="fill:#31211f; stroke:none;" d="M95 221L93 227L95 221z"/>
<path style="fill:#a5a4a4; stroke:none;" d="M100 221L101 222L100 221M107 221L108 222L107 221M110 221L111 222L110 221M112 221L114 225L115 225L115 221L112 221M134 221L135 222L134 221M137 221L138 222L137 221M45 222L46 223L45 222z"/>
<path style="fill:#fdfdfd; stroke:none;" d="M65.6667 222.333L66.3333 222.667L65.6667 222.333z"/>
<path style="fill:#a5a4a4; stroke:none;" d="M77 222L78 223L77 222M81 222L82 223L81 222z"/>
<path style="fill:#fdfdfd; stroke:none;" d="M96.6667 222.333L97.3333 222.667L96.6667 222.333z"/>
<path style="fill:#a85b5c; stroke:none;" d="M100 222L101 223L100 222M110 222L111 223L110 222M112 222L113 223L112 222z"/>
<path style="fill:#a5a4a4; stroke:none;" d="M42 223L42 226L43 226L42 223M63 223L64 224L63 223z"/>
<path style="fill:#a85b5c; stroke:none;" d="M64 224L64 225L68 225L64 224z"/>
<path style="fill:#a5a4a4; stroke:none;" d="M80 223L81 224L80 223M94 223L95 224L94 223z"/>
<path style="fill:#a85b5c; stroke:none;" d="M95 224L95 225L99 225L95 224z"/>
<path style="fill:#a5a4a4; stroke:none;" d="M108 223L109 224L108 223M111 223L112 224L111 223M117 223L117 226L118 226L117 223z"/>
<path style="fill:#a85b5c; stroke:none;" d="M28 224L29 225L28 224z"/>
<path style="fill:#a5a4a4; stroke:none;" d="M46 224L47 225L46 224M65.6667 224.333L66.3333 224.667L65.6667 224.333M70 224L71 225L70 224M96.6667 224.333L97.3333 224.667L96.6667 224.333M101 224L102 225L101 224z"/>
<path style="fill:#a85b5c; stroke:none;" d="M112 224L113 225L112 224z"/>
<path style="fill:#a5a4a4; stroke:none;" d="M128 224L129 225L128 224M27 225L28 226L27 225M29 225L30 226L29 225z"/>
<path style="fill:#a85b5c; stroke:none;" d="M56 225L57 226L56 225z"/>
<path style="fill:#a5a4a4; stroke:none;" d="M62 225L63 226L62 225M93 225L94 226L93 225z"/>
<path style="fill:#a85b5c; stroke:none;" d="M105.667 225.333L106.333 225.667L105.667 225.333z"/>
<path style="fill:#a5a4a4; stroke:none;" d="M109 225L110 226L109 225M127 225L128 226L127 225z"/>
<path style="fill:#a85b5c; stroke:none;" d="M39.3333 226.667L39.6667 227.333L39.3333 226.667M49 226L53 228L53 227L49 226z"/>
<path style="fill:#a5a4a4; stroke:none;" d="M53.3333 226.667L53.6667 227.333L53.3333 226.667M55 226L56 227L55 226M59 226L60 227L59 226M61 226L62 227L61 226M64 226L65 227L64 226M67.3333 226.667L67.6667 227.333L67.3333 226.667z"/>
<path style="fill:#a85b5c; stroke:none;" d="M71 226L68 227L68 228L71 226z"/>
<path style="fill:#a5a4a4; stroke:none;" d="M73 226L74 227L73 226M77 226L78 227L77 226M85 226L86 227L85 226M89 226L90 227L89 226M92 226L93 227L92 226M95 226L96 227L95 226M98.3333 226.667L98.6667 227.333L98.3333 226.667z"/>
<path style="fill:#a85b5c; stroke:none;" d="M102 226L99 227L99 228L102 226z"/>
<path style="fill:#a5a4a4; stroke:none;" d="M104 226L105 227L104 226z"/>
<path style="fill:#31211f; stroke:none;" d="M105.667 226.333L106.333 226.667L105.667 226.333z"/>
<path style="fill:#a5a4a4; stroke:none;" d="M107 226L108 227L107 226z"/>
<path style="fill:#a85b5c; stroke:none;" d="M114 226L119 228L119 227L114 226z"/>
<path style="fill:#a5a4a4; stroke:none;" d="M118 226L119 227L118 226z"/>
<path style="fill:#a85b5c; stroke:none;" d="M128 226L126 227L126 228L128 226z"/>
<path style="fill:#a5a4a4; stroke:none;" d="M130.333 226.667L130.667 227.333L130.333 226.667z"/>
<path style="fill:#a85b5c; stroke:none;" d="M134 226L131 227L131 228L134 226z"/>
<path style="fill:#a5a4a4; stroke:none;" d="M137 226L138 227L137 226M141 226L142 227L141 226M145 226L146 227L145 226M149 226L151 228L149 226z"/>
<path style="fill:#a85b5c; stroke:none;" d="M28 227L28 228L35 228L28 227z"/>
<path style="fill:#a5a4a4; stroke:none;" d="M38 227L39 228L38 227M40 227L40 228L45 228L40 227z"/>
<path style="fill:#a85b5c; stroke:none;" d="M45 227L46 228L45 227z"/>
<path style="fill:#a5a4a4; stroke:none;" d="M46 227L47 228L46 227M48 227L49 228L48 227z"/>
<path style="fill:#a85b5c; stroke:none;" d="M55 227L55 228L60 228L55 227M61 227L61 228L65 228L61 227M73 227L73 228L78 228L73 227M85 227L85 228L90 228L85 227M92 227L92 228L96 228L92 227M104 227L104 228L108 228L104 227z"/>
<path style="fill:#a5a4a4; stroke:none;" d="M113 227L114 228L113 227z"/>
<path style="fill:#a85b5c; stroke:none;" d="M121 227L122 228L121 227z"/>
<path style="fill:#a5a4a4; stroke:none;" d="M122 227L122 228L126 228L122 227M128 227L129 228L128 227M135 227L136 228L135 227z"/>
<path style="fill:#a85b5c; stroke:none;" d="M137 227L137 228L142 228L137 227M145 227L145 228L150 228L145 227M27 228L28 229L27 228z"/>
<path style="fill:#a5a4a4; stroke:none;" d="M27 229L28 230L27 229z"/>
<path style="fill:#a85b5c; stroke:none;" d="M35 229L36 230L35 229z"/>
<path style="fill:#a5a4a4; stroke:none;" d="M26 230L27 231L26 230M36 230L37 231L36 230M43 234L43 235L46 235L43 234M82 234L83 235L82 234M119.667 234.333L120.333 234.667L119.667 234.333z"/>
<path style="fill:#31211f; stroke:none;" d="M0 235L0 236C2.16473 238.872 2.16473 241.128 0 244L0 245L5 245L8 239L7 245L12 245L12 244C9.83527 241.128 9.83527 238.872 12 236L12 235L7 235L4 241L5 235L0 235z"/>
<path style="fill:#a5a4a4; stroke:none;" d="M5.66667 235.333L6.33333 235.667L5.66667 235.333z"/>
<path style="fill:#31211f; stroke:none;" d="M13 235L13 236L14 245L18 245L17 240L21 240L20 245L25 245L25 244C22.8353 241.128 22.8353 238.872 25 236L25 235L20 235L21 239L17 239L18 235L13 235z"/>
<path style="fill:#a5a4a4; stroke:none;" d="M18 235L19 236L18 235M29 235L29 237L31 237L29 235z"/>
<path style="fill:#31211f; stroke:none;" d="M30 235L27 238L30 245L35 245L35 244L33 243C37.5953 241.308 38.4033 237.901 33 237L33 236L35 236L30 235z"/>
<path style="fill:#a5a4a4; stroke:none;" d="M41 235L40 237L41 235z"/>
<path style="fill:#31211f; stroke:none;" d="M42.3171 236.047C37.7887 238.84 41.6332 246.942 46.5671 243.802C51.0945 240.92 47.2574 233 42.3171 236.047z"/>
<path style="fill:#a5a4a4; stroke:none;" d="M47 235L48 236L47 235z"/>
<path style="fill:#31211f; stroke:none;" d="M51 235L51 245L56 245L56 244L54 241C62.1584 239.638 56.4136 235.064 51 235z"/>
<path style="fill:#a5a4a4; stroke:none;" d="M58 235L59 236L58 235z"/>
<path style="fill:#a85b5c; stroke:none;" d="M61 235L62 236L61 235z"/>
<path style="fill:#31211f; stroke:none;" d="M62 235L63 241L64 241L64 238L65 238L69 244L70 240L66 235L62 235M70 239C73.423 239 71.7073 242.557 71 245L76 245L76 244L75 235L70 239z"/>
<path style="fill:#a5a4a4; stroke:none;" d="M75 235L76 236L75 235z"/>
<path style="fill:#31211f; stroke:none;" d="M81 235L80 239L81 239L82 237L83 245L87 245L83 235L81 235z"/>
<path style="fill:#a85b5c; stroke:none;" d="M83 235L84 236L83 235z"/>
<path style="fill:#a5a4a4; stroke:none;" d="M88 235L89 236L88 235z"/>
<path style="fill:#31211f; stroke:none;" d="M89 235L89 245L99 247L100 247L100 235L95 235L96 244L92 244L94 236L89 235z"/>
<path style="fill:#a5a4a4; stroke:none;" d="M101 235L102 236L101 235z"/>
<path style="fill:#31211f; stroke:none;" d="M102 235L102 245L107 245L107 244L110 239L108 244L108 245L113 245L113 235L108 235L108 236L110 237L105 241L107 236L102 235z"/>
<path style="fill:#a5a4a4; stroke:none;" d="M113 235L114 236L113 235z"/>
<path style="fill:#31211f; stroke:none;" d="M117.434 236.043C113.059 238.911 116.84 246.81 121.686 243.928C126.416 241.115 122.618 232.645 117.434 236.043z"/>
<path style="fill:#a85b5c; stroke:none;" d="M122 235L123 236L122 235z"/>
<path style="fill:#31211f; stroke:none;" d="M126 235L126 236C128.165 238.872 128.165 241.128 126 244L126 245L131 245L130 240L134 240L133 245L138 245L138 244C135.835 241.128 135.835 238.872 138 236L138 235L133 235L134 239L130 239L131 235L126 235z"/>
<path style="fill:#a5a4a4; stroke:none;" d="M131 235L132 236L131 235z"/>
<path style="fill:#a85b5c; stroke:none;" d="M139 235L140 236L139 235z"/>
<path style="fill:#31211f; stroke:none;" d="M140 235L140 245L144 245L143 240L147 240L146 245L151 245C149.536 241.519 148.659 239.155 151 236L151 235L146 235L147 239L143 239L144 235L140 235z"/>
<path style="fill:#a5a4a4; stroke:none;" d="M144 235L145 236L144 235M152 235L152 245L153 245L152 235z"/>
<path style="fill:#31211f; stroke:none;" d="M153 235L153 245C157.898 244.881 160.579 244.275 161 239L156 239L158 236L153 235M162 235L162 236C164.341 239.155 163.464 241.519 162 245L167 245L167 235L162 235z"/>
<path style="fill:#a5a4a4; stroke:none;" d="M167.667 235.333L168.333 235.667L167.667 235.333z"/>
<path style="fill:#31211f; stroke:none;" d="M169 235C170.889 239.01 170.979 241.012 169 245L172 242L174 245L178 245L178 235L174 235L175 238L169 235z"/>
<path style="fill:#a5a4a4; stroke:none;" d="M172 235L173 236L172 235M178 235L175 239L178 235z"/>
<path style="fill:#fdfdfd; stroke:none;" d="M0 236L0 244L1 244L0 236z"/>
<path style="fill:#a85b5c; stroke:none;" d="M1 236L2 237L1 236z"/>
<path style="fill:#fdfdfd; stroke:none;" d="M4 236L4 240L8 236L4 236z"/>
<path style="fill:#a5a4a4; stroke:none;" d="M10 236L10 243L11 243L10 236M14 236L14 243L15 243L14 236M23 236L24 244L25 244L23 236z"/>
<path style="fill:#a85b5c; stroke:none;" d="M33 236L34 237L33 236z"/>
<path style="fill:#a5a4a4; stroke:none;" d="M34 236L35 237L34 236M43 236L44 237L43 236z"/>
<path style="fill:#fdfdfd; stroke:none;" d="M44 236L43 243L46 243L44 236z"/>
<path style="fill:#a85b5c; stroke:none;" d="M45 236L46 237L45 236z"/>
<path style="fill:#a5a4a4; stroke:none;" d="M48 236L49 237L48 236z"/>
<path style="fill:#a85b5c; stroke:none;" d="M54 236L55 237L54 236z"/>
<path style="fill:#a5a4a4; stroke:none;" d="M55 236L55 240L56 240L55 236z"/>
<path style="fill:#a85b5c; stroke:none;" d="M56 236L57 237L56 236z"/>
<path style="fill:#a5a4a4; stroke:none;" d="M59 236L60 237L59 236M62 236L62 241L63 241L62 236M66 236L67 237L66 236M70 236L71 237L70 236M80 236L81 237L80 236M92 236L92 243L93 243L92 236z"/>
<path style="fill:#a85b5c; stroke:none;" d="M105 236L106 237L105 236M109 236L110 237L109 236M118 236L119 237L118 236z"/>
<path style="fill:#fdfdfd; stroke:none;" d="M119 236L119 243L121 243L119 236z"/>
<path style="fill:#a5a4a4; stroke:none;" d="M120 236L121 237L120 236M127 236L127 243L128 243L127 236M136 236L137 244L138 244L136 236M140 236L140 243L141 243L140 236M143 236L144 237L143 236z"/>
<path style="fill:#a85b5c; stroke:none;" d="M149 236L149 243L150 243L149 236z"/>
<path style="fill:#a5a4a4; stroke:none;" d="M156 236L160 239L160 238L156 236z"/>
<path style="fill:#a85b5c; stroke:none;" d="M163 236L163 243L164 243L163 236z"/>
<path style="fill:#fdfdfd; stroke:none;" d="M166 236L167 244C172.036 241.43 171.771 236.98 166 236M178 236L175 239L175 240L179 243L178 236z"/>
<path style="fill:#a5a4a4; stroke:none;" d="M1 237L1 243L2 243L1 237z"/>
<path style="fill:#a85b5c; stroke:none;" d="M7 237L8 238L7 237z"/>
<path style="fill:#a5a4a4; stroke:none;" d="M27 237L28 238L27 237z"/>
<path style="fill:#a85b5c; stroke:none;" d="M42 237L43 238L42 237z"/>
<path style="fill:#fdfdfd; stroke:none;" d="M55 237L55 239L57 239L57 237L55 237z"/>
<path style="fill:#a85b5c; stroke:none;" d="M59.3333 237.667L59.6667 238.333L59.3333 237.667M66 237L67 238L66 237M81 237L82 238L81 237z"/>
<path style="fill:#a5a4a4; stroke:none;" d="M84 237L85 238L84 237M105 237L105 240L106 240L105 237M115 237L116 238L115 237M121 237L122 238L121 237M170 237L171 238L170 237M173.667 237.333L174.333 237.667L173.667 237.333z"/>
<path style="fill:#a85b5c; stroke:none;" d="M6 238L7 239L6 238z"/>
<path style="fill:#a5a4a4; stroke:none;" d="M26 238L27 239L26 238M29 238L30 239L29 238z"/>
<path style="fill:#fdfdfd; stroke:none;" d="M30 238L29 241L30 238z"/>
<path style="fill:#a5a4a4; stroke:none;" d="M33 238L33 241L34 241L33 238z"/>
<path style="fill:#fdfdfd; stroke:none;" d="M34 238L34 241L35 241L34 238z"/>
<path style="fill:#a5a4a4; stroke:none;" d="M39 238L39 242L40 242L39 238M42 238L42 242L43 242L42 238z"/>
<path style="fill:#a85b5c; stroke:none;" d="M46 238L46 241L47 241L46 238z"/>
<path style="fill:#a5a4a4; stroke:none;" d="M64 238L65 239L64 238M69 238L71 244L72 244L72 238L69 238z"/>
<path style="fill:#fdfdfd; stroke:none;" d="M81.3333 238.667L81.6667 239.333L81.3333 238.667z"/>
<path style="fill:#a5a4a4; stroke:none;" d="M124 238L124 242L125 242L124 238M143 238L144 239L143 238z"/>
<path style="fill:#a85b5c; stroke:none;" d="M5 239L6 240L5 239z"/>
<path style="fill:#a5a4a4; stroke:none;" d="M7 239L8 240L7 239z"/>
<path style="fill:#a85b5c; stroke:none;" d="M26.3333 239.667L26.6667 240.333L26.3333 239.667z"/>
<path style="fill:#a5a4a4; stroke:none;" d="M35 239L36 240L35 239z"/>
<path style="fill:#a85b5c; stroke:none;" d="M54 239L55 240L54 239z"/>
<path style="fill:#a5a4a4; stroke:none;" d="M67 239L68 240L67 239z"/>
<path style="fill:#a85b5c; stroke:none;" d="M69 239L70 240L69 239z"/>
<path style="fill:#a5a4a4; stroke:none;" d="M79 239L80 240L79 239z"/>
<path style="fill:#a85b5c; stroke:none;" d="M80 239L78 243L79 244L83 240L80 239z"/>
<path style="fill:#a5a4a4; stroke:none;" d="M82 239L83 240L82 239M108.667 239.333L109.333 239.667L108.667 239.333z"/>
<path style="fill:#a85b5c; stroke:none;" d="M4 240L5 241L4 240z"/>
<path style="fill:#fdfdfd; stroke:none;" d="M4 243L7 244L8 240L4 243z"/>
<path style="fill:#a5a4a4; stroke:none;" d="M17 240L18 241L17 240z"/>
<path style="fill:#fdfdfd; stroke:none;" d="M18 240L17 241L17 243L18 244L20 244L21 243L21 241L20 240L18 240z"/>
<path style="fill:#a5a4a4; stroke:none;" d="M20 240L21 241L20 240z"/>
<path style="fill:#a85b5c; stroke:none;" d="M35 240L36 241L35 240z"/>
<path style="fill:#a5a4a4; stroke:none;" d="M58 240L59 241L58 240z"/>
<path style="fill:#a85b5c; stroke:none;" d="M65 240L66 241L65 240z"/>
<path style="fill:#31211f; stroke:none;" d="M79.3333 240.667L79.6667 241.333L79.3333 240.667z"/>
<path style="fill:#a5a4a4; stroke:none;" d="M81 240L82 241L81 240z"/>
<path style="fill:#a85b5c; stroke:none;" d="M85 240L86 241L85 240M105 240L106 241L105 240M107 240L108 241L107 240M109.333 240.667L109.667 241.333L109.333 240.667z"/>
<path style="fill:#a5a4a4; stroke:none;" d="M130 240L131 241L130 240z"/>
<path style="fill:#fdfdfd; stroke:none;" d="M131 240L130 241L130 243L131 244L133 244L134 243L134 241L133 240L131 240z"/>
<path style="fill:#a5a4a4; stroke:none;" d="M133 240L134 241L133 240M143 240L144 241L143 240M156 240L156 243L157 243L156 240z"/>
<path style="fill:#fdfdfd; stroke:none;" d="M157 240L159 243L157 240z"/>
<path style="fill:#a5a4a4; stroke:none;" d="M158 240L159 241L158 240M161 240L162 241L161 240z"/>
<path style="fill:#a85b5c; stroke:none;" d="M175 240L176 241L175 240z"/>
<path style="fill:#a5a4a4; stroke:none;" d="M30 241L31 242L30 241z"/>
<path style="fill:#a85b5c; stroke:none;" d="M33.6667 241.333L34.3333 241.667L33.6667 241.333z"/>
<path style="fill:#a5a4a4; stroke:none;" d="M37 241L38 242L37 241M54 241L56 244L54 241z"/>
<path style="fill:#a85b5c; stroke:none;" d="M62 241L62 243L64 243L64 241L62 241M69 241L70 242L69 241z"/>
<path style="fill:#a5a4a4; stroke:none;" d="M74.3333 241.667L74.6667 242.333L74.3333 241.667M78 241L79 242L78 241M106 241L107 242L106 241M121 241L122 242L121 241z"/>
<path style="fill:#a85b5c; stroke:none;" d="M161.333 241.667L161.667 242.333L161.333 241.667z"/>
<path style="fill:#a5a4a4; stroke:none;" d="M171 241L172 242L171 241M176 241L177 242L176 241z"/>
<path style="fill:#a85b5c; stroke:none;" d="M28 242L29 243L28 242M35 242L36 243L35 242z"/>
<path style="fill:#a5a4a4; stroke:none;" d="M48 242L49 243L48 242z"/>
<path style="fill:#a85b5c; stroke:none;" d="M66 242L67 243L66 242z"/>
<path style="fill:#a5a4a4; stroke:none;" d="M83.3333 242.667L83.6667 243.333L83.3333 242.667M86 242L87 243L86 242z"/>
<path style="fill:#a85b5c; stroke:none;" d="M105.333 242.667L105.667 243.333L105.333 242.667z"/>
<path style="fill:#a5a4a4; stroke:none;" d="M109 242L110 243L109 242M115 242L116 243L115 242M118 242L119 243L118 242z"/>
<path style="fill:#a85b5c; stroke:none;" d="M121 242L122 243L121 242z"/>
<path style="fill:#a5a4a4; stroke:none;" d="M170 242L171 243L170 242M172 242L173 243L172 242z"/>
<path style="fill:#a85b5c; stroke:none;" d="M1 243L2 244L1 243z"/>
<path style="fill:#a5a4a4; stroke:none;" d="M4 243L5 244L4 243M7 243L8 244L7 243z"/>
<path style="fill:#a85b5c; stroke:none;" d="M10 243L11 244L10 243M14 243L15 244L14 243z"/>
<path style="fill:#a5a4a4; stroke:none;" d="M17 243L18 244L17 243M20 243L21 244L20 243z"/>
<path style="fill:#a85b5c; stroke:none;" d="M23 243L24 244L23 243z"/>
<path style="fill:#a5a4a4; stroke:none;" d="M30 243L31 244L30 243z"/>
<path style="fill:#a85b5c; stroke:none;" d="M33 243L34 244L33 243z"/>
<path style="fill:#a5a4a4; stroke:none;" d="M40 243L41 244L40 243z"/>
<path style="fill:#a85b5c; stroke:none;" d="M44 243L45 244L44 243z"/>
<path style="fill:#a5a4a4; stroke:none;" d="M51 243L52 244L51 243z"/>
<path style="fill:#a85b5c; stroke:none;" d="M54 243L55 244L54 243z"/>
<path style="fill:#a5a4a4; stroke:none;" d="M61 243L62 244L61 243z"/>
<path style="fill:#31211f; stroke:none;" d="M61 244L61 245L65 245L61 244z"/>
<path style="fill:#a5a4a4; stroke:none;" d="M64 243L65 244L64 243M66 243L67 244L66 243z"/>
<path style="fill:#a85b5c; stroke:none;" d="M74 243L75 244L74 243z"/>
<path style="fill:#a5a4a4; stroke:none;" d="M77 243L76 245L77 243z"/>
<path style="fill:#31211f; stroke:none;" d="M77 245L80 245L79 243L77 245z"/>
<path style="fill:#a5a4a4; stroke:none;" d="M89 243L90 244L89 243z"/>
<path style="fill:#a85b5c; stroke:none;" d="M92 243L92 244L96 244L92 243M99 243L100 244L99 243z"/>
<path style="fill:#a5a4a4; stroke:none;" d="M102 243L103 244L102 243M106 243L107 244L106 243z"/>
<path style="fill:#a85b5c; stroke:none;" d="M109 243L110 244L109 243z"/>
<path style="fill:#a5a4a4; stroke:none;" d="M112 243L113 244L112 243z"/>
<path style="fill:#a85b5c; stroke:none;" d="M119 243L120 244L119 243z"/>
<path style="fill:#a5a4a4; stroke:none;" d="M123 243L124 244L123 243z"/>
<path style="fill:#a85b5c; stroke:none;" d="M127 243L128 244L127 243z"/>
<path style="fill:#a5a4a4; stroke:none;" d="M130 243L131 244L130 243M133 243L134 244L133 243z"/>
<path style="fill:#a85b5c; stroke:none;" d="M136 243L137 244L136 243M140 243L141 244L140 243z"/>
<path style="fill:#a5a4a4; stroke:none;" d="M143 243L144 244L143 243M146 243L147 244L146 243M150 243L151 244L150 243z"/>
<path style="fill:#a85b5c; stroke:none;" d="M157 243L158 244L157 243z"/>
<path style="fill:#a5a4a4; stroke:none;" d="M166 243L167 244L166 243z"/>
<path style="fill:#a85b5c; stroke:none;" d="M169 243L170 244L169 243M174 243L175 244L174 243z"/>
<path style="fill:#a5a4a4; stroke:none;" d="M178 243L179 244L178 243M5.66667 244.333L6.33333 244.667L5.66667 244.333z"/>
<path style="fill:#a85b5c; stroke:none;" d="M13 244L14 245L13 244z"/>
<path style="fill:#a5a4a4; stroke:none;" d="M18.6667 244.333L19.3333 244.667L18.6667 244.333M29 244L30 245L29 244M41 244L42 245L41 244z"/>
<path style="fill:#a85b5c; stroke:none;" d="M46 244L47 245L46 244z"/>
<path style="fill:#a5a4a4; stroke:none;" d="M50 244L51 245L50 244M67 244L68 245L67 244M70 244L71 245L70 244M80 244L81 245L80 244M87.6667 244.333L88.3333 244.667L87.6667 244.333M101 244L102 245L101 244M113 244L114 245L113 244z"/>
<path style="fill:#a85b5c; stroke:none;" d="M117 244L118 245L117 244z"/>
<path style="fill:#a5a4a4; stroke:none;" d="M122 244L123 245L122 244M131.667 244.333L132.333 244.667L131.667 244.333z"/>
<path style="fill:#a85b5c; stroke:none;" d="M139 244L140 245L139 244z"/>
<path style="fill:#a5a4a4; stroke:none;" d="M144 244L145 245L144 244z"/>
<path style="fill:#a85b5c; stroke:none;" d="M159 244L160 245L159 244z"/>
<path style="fill:#a5a4a4; stroke:none;" d="M167.667 244.333L168.333 244.667L167.667 244.333z"/>
<path style="fill:#a85b5c; stroke:none;" d="M172 244L173 245L172 244M178 244L179 245L178 244M98.3333 245.667L98.6667 246.333L98.3333 245.667z"/>
<path style="fill:#a5a4a4; stroke:none;" d="M98.6667 247.333L99.3333 247.667L98.6667 247.333M138 248L140 250L138 248M142 248L143 249L142 248z"/>
<path style="fill:#a85b5c; stroke:none;" d="M137 249L139 251L137 249z"/>
<path style="fill:#31211f; stroke:none;" d="M138 249L139 250L138 249z"/>
<path style="fill:#a85b5c; stroke:none;" d="M141.333 249.667L141.667 250.333L141.333 249.667z"/>
<path style="fill:#31211f; stroke:none;" d="M142 249L143 250L142 249M139.667 250.333L140.333 250.667L139.667 250.333M32 255L33 255L36 253L34 261L34 262L39 262L38 253L41 254C39.093 250.69 32.8583 250.995 32 255z"/>
<path style="fill:#a85b5c; stroke:none;" d="M41 252L41 255L42 255L41 252z"/>
<path style="fill:#a5a4a4; stroke:none;" d="M42 252L44 254L42 252z"/>
<path style="fill:#31211f; stroke:none;" d="M43 252L43 262C46.5105 262 50.1456 262.987 51 259L50 259L46 261L49 257L49 256L46 253L50 254L43 252z"/>
<path style="fill:#a5a4a4; stroke:none;" d="M50 252L49 255L50 252z"/>
<path style="fill:#a85b5c; stroke:none;" d="M52 252L54 254L52 252z"/>
<path style="fill:#31211f; stroke:none;" d="M53 252C54.6257 255.951 55.3379 257.984 52 261L52 262L56 262L58 259L62 262L58 257L58 256L62 252L58 252L59 255L53 252z"/>
<path style="fill:#a5a4a4; stroke:none;" d="M61 253L61 254L65 254L61 253z"/>
<path style="fill:#31211f; stroke:none;" d="M64 252L64 262L69 262L69 261L67 257C69.5822 257.775 71.1025 258.306 70 261L70 262L75 262L75 252L70 252L72 256L67 256L69 253L64 252z"/>
<path style="fill:#a5a4a4; stroke:none;" d="M75 252L76 253L75 252z"/>
<path style="fill:#a85b5c; stroke:none;" d="M79 252L80 253L79 252z"/>
<path style="fill:#31211f; stroke:none;" d="M80.2238 252.801C75.319 254.615 77.6179 263.157 82.8673 261.338C87.8928 259.596 85.6022 250.811 80.2238 252.801z"/>
<path style="fill:#a5a4a4; stroke:none;" d="M84 252L85 253L84 252z"/>
<path style="fill:#31211f; stroke:none;" d="M90 252L90 253L92 257L93 257L93 253C96.0342 256.017 95.5748 258.182 94 262L99 262L99 252L90 252z"/>
<path style="fill:#a5a4a4; stroke:none;" d="M99 252L100 253L99 252z"/>
<path style="fill:#a85b5c; stroke:none;" d="M103 252L104 253L103 252z"/>
<path style="fill:#31211f; stroke:none;" d="M104.224 252.801C99.2429 254.641 101.45 263.183 106.856 261.338C111.898 259.617 109.608 250.812 104.224 252.801z"/>
<path style="fill:#a5a4a4; stroke:none;" d="M108 252L109 253L108 252z"/>
<path style="fill:#31211f; stroke:none;" d="M112 252L112 262L117 262L116 253L119 255C120.458 251.131 114.572 252.002 112 252z"/>
<path style="fill:#a85b5c; stroke:none;" d="M121 252L122 253L121 252z"/>
<path style="fill:#31211f; stroke:none;" d="M122 252L121 261L121 262L126 262L129 256L128 262L133 262L133 261C130.835 258.128 130.835 255.872 133 253L133 252L128 252L125 258L126 252L122 252z"/>
<path style="fill:#a5a4a4; stroke:none;" d="M126 252L127 253L126 252M134 252L135 261L136 261L134 252z"/>
<path style="fill:#31211f; stroke:none;" d="M135 252L135 262L139 262L142 256L141 262L146 262L146 252L141 252L138 258L139 252L135 252z"/>
<path style="fill:#a85b5c; stroke:none;" d="M139 252L140 253L139 252z"/>
<path style="fill:#a5a4a4; stroke:none;" d="M33 253L34 254L33 253z"/>
<path style="fill:#a85b5c; stroke:none;" d="M35 253L36 254L35 253z"/>
<path style="fill:#a5a4a4; stroke:none;" d="M38 253L39 254L38 253z"/>
<path style="fill:#a85b5c; stroke:none;" d="M46 253L47 254L46 253z"/>
<path style="fill:#a5a4a4; stroke:none;" d="M47.6667 253.333L48.3333 253.667L47.6667 253.333M56 253L57 254L56 253z"/>
<path style="fill:#fdfdfd; stroke:none;" d="M64 261L64 253C58.9561 254.949 59.5091 258.622 64 261z"/>
<path style="fill:#a85b5c; stroke:none;" d="M67 253L68 254L67 253z"/>
<path style="fill:#a5a4a4; stroke:none;" d="M81.6667 253.333L82.3333 253.667L81.6667 253.333M85 253L86 254L85 253M91 253L91 257L92 257L91 253M93.6667 253.333L94.3333 253.667L93.6667 253.333M105 253L106 254L105 253z"/>
<path style="fill:#a85b5c; stroke:none;" d="M106 253L108 255L106 253z"/>
<path style="fill:#a5a4a4; stroke:none;" d="M109 253L110 254L109 253M116.667 253.333L117.333 253.667L116.667 253.333z"/>
<path style="fill:#a85b5c; stroke:none;" d="M118 253L119 254L118 253z"/>
<path style="fill:#a5a4a4; stroke:none;" d="M122 253L122 261L123 261L122 253M125 253L126 254L125 253z"/>
<path style="fill:#a85b5c; stroke:none;" d="M131 253L131 261L132 261L131 253z"/>
<path style="fill:#a5a4a4; stroke:none;" d="M138 253L138 258L139 258L138 253M35 254L35 260L36 260L35 254M40 254L41 255L40 254M46.3333 254.667L46.6667 255.333L46.3333 254.667M58 254L59 255L58 254M67.3333 254.667L67.6667 255.333L67.3333 254.667z"/>
<path style="fill:#a85b5c; stroke:none;" d="M71.3333 254.667L71.6667 255.333L71.3333 254.667z"/>
<path style="fill:#a5a4a4; stroke:none;" d="M77 254L78 255L77 254z"/>
<path style="fill:#fdfdfd; stroke:none;" d="M80 254L80 260C83.4451 259.032 83.579 257.372 83 254L80 254z"/>
<path style="fill:#a85b5c; stroke:none;" d="M83 254L84 255L83 254M95 254L95 260L96 260L95 254M101 254L102 255L101 254z"/>
<path style="fill:#fdfdfd; stroke:none;" d="M104 254L104 260L107 260L107 254L104 254z"/>
<path style="fill:#a85b5c; stroke:none;" d="M113 254L113 260L114 260L113 254z"/>
<path style="fill:#a5a4a4; stroke:none;" d="M128 254L129 255L128 254z"/>
<path style="fill:#a85b5c; stroke:none;" d="M144 254L144 260L145 260L144 254z"/>
<path style="fill:#a5a4a4; stroke:none;" d="M59 255L60 256L59 255M83 255L84 256L83 255M86 255L86 259L87 259L86 255z"/>
<path style="fill:#a85b5c; stroke:none;" d="M103 255L103 259L104 259L103 255z"/>
<path style="fill:#a5a4a4; stroke:none;" d="M107 255L107 259L108 259L107 255M110 255L110 259L111 259L110 255M127 255L128 256L127 255M49 256L50 257L49 256M55 256L56 257L55 256z"/>
<path style="fill:#a85b5c; stroke:none;" d="M58 256L59 257L58 256M79.3333 256.667L79.6667 257.333L79.3333 256.667z"/>
<path style="fill:#a5a4a4; stroke:none;" d="M126 256L127 257L126 256M128 256L129 257L128 256M141 256L142 257L141 256z"/>
<path style="fill:#a85b5c; stroke:none;" d="M46 257L47 258L46 257z"/>
<path style="fill:#a5a4a4; stroke:none;" d="M47.6667 257.333L48.3333 257.667L47.6667 257.333M59 257L60 258L59 257z"/>
<path style="fill:#a85b5c; stroke:none;" d="M67 257L68 258L67 257z"/>
<path style="fill:#a5a4a4; stroke:none;" d="M68 257L68 258L71 258L68 257z"/>
<path style="fill:#a85b5c; stroke:none;" d="M91.6667 257.333L92.3333 257.667L91.6667 257.333z"/>
<path style="fill:#a5a4a4; stroke:none;" d="M125 257L126 258L125 257M127 257L128 258L127 257M140 257L141 258L140 257M46 258L49 261L49 260L46 258z"/>
<path style="fill:#a85b5c; stroke:none;" d="M55 258L56 259L55 258z"/>
<path style="fill:#a5a4a4; stroke:none;" d="M67.3333 258.667L67.6667 259.333L67.3333 258.667z"/>
<path style="fill:#a85b5c; stroke:none;" d="M71 258L71 261L72 261L71 258z"/>
<path style="fill:#a5a4a4; stroke:none;" d="M83 258L84 259L83 258z"/>
<path style="fill:#31211f; stroke:none;" d="M91 258L88 260C90.022 262.142 91.5984 260.586 91 258z"/>
<path style="fill:#a5a4a4; stroke:none;" d="M92 258L93 259L92 258M126 258L127 259L126 258M139 258L140 259L139 258M54 259L55 260L54 259z"/>
<path style="fill:#fdfdfd; stroke:none;" d="M56 259L56 261L58 261L56 259z"/>
<path style="fill:#a5a4a4; stroke:none;" d="M57 259L58 260L57 259z"/>
<path style="fill:#a85b5c; stroke:none;" d="M60 259L61 260L60 259M77 259L78 260L77 259M83 259L84 260L83 259M107 259L108 260L107 259z"/>
<path style="fill:#a5a4a4; stroke:none;" d="M125.333 259.667L125.667 260.333L125.333 259.667M138.333 259.667L138.667 260.333L138.333 259.667z"/>
<path style="fill:#a85b5c; stroke:none;" d="M35 260L36 261L35 260z"/>
<path style="fill:#a5a4a4; stroke:none;" d="M38 260L39 261L38 260M43 260L44 261L43 260z"/>
<path style="fill:#a85b5c; stroke:none;" d="M46 260L47 261L46 260M49 260L50 261L49 260M53 260L54 261L53 260M55 260L56 261L55 260z"/>
<path style="fill:#a5a4a4; stroke:none;" d="M61 260L62 261L61 260M64 260L65 261L64 260z"/>
<path style="fill:#a85b5c; stroke:none;" d="M67 260L68 261L67 260z"/>
<path style="fill:#a5a4a4; stroke:none;" d="M77 260L78 261L77 260M81 260L82 261L81 260z"/>
<path style="fill:#a85b5c; stroke:none;" d="M82 260L83 261L82 260z"/>
<path style="fill:#a5a4a4; stroke:none;" d="M85 260L86 261L85 260z"/>
<path style="fill:#a85b5c; stroke:none;" d="M89.6667 260.333L90.3333 260.667L89.6667 260.333z"/>
<path style="fill:#a5a4a4; stroke:none;" d="M101 260L102 261L101 260M105 260L106 261L105 260z"/>
<path style="fill:#a85b5c; stroke:none;" d="M106 260L107 261L106 260z"/>
<path style="fill:#a5a4a4; stroke:none;" d="M109 260L110 261L109 260M39 261L40 262L39 261M42 261L43 262L42 261M56.6667 261.333L57.3333 261.667L56.6667 261.333M62.6667 261.333L63.3333 261.667L62.6667 261.333M75 261L76 262L75 261M78 261L79 262L78 261M84 261L85 262L84 261M99 261L100 262L99 261M102 261L103 262L102 261M108 261L109 262L108 261M117 261L118 262L117 261M126 261L127 262L126 261z"/>
<path style="fill:#a85b5c; stroke:none;" d="M134 261L135 262L134 261M139 261L140 262L139 261z"/>
<path style="fill:#a5a4a4; stroke:none;" d="M16 269L16 279L17 279L16 269z"/>
<path style="fill:#31211f; stroke:none;" d="M17 269L17 279L22 279L22 278L17 269z"/>
<path style="fill:#a85b5c; stroke:none;" d="M18 269L18 270L23 271L23 270L18 269z"/>
<path style="fill:#31211f; stroke:none;" d="M21 269L21 270L24 271L21 269z"/>
<path style="fill:#a5a4a4; stroke:none;" d="M24 269L23 272L24 269z"/>
<path style="fill:#a85b5c; stroke:none;" d="M28 269L28 272L29 272L28 269z"/>
<path style="fill:#31211f; stroke:none;" d="M29 269L29 270L32 278C28.3919 276.005 28.192 273.911 29 270C25.4397 272.309 25.0028 279.768 30.9105 278.623C37.8541 277.278 33.65 269.993 29 269z"/>
<path style="fill:#a85b5c; stroke:none;" d="M32 269L33 270L32 269z"/>
<path style="fill:#31211f; stroke:none;" d="M37 269L37 279L42 279L42 278L40 275C48.5611 273.576 41.7698 269.65 37 269z"/>
<path style="fill:#a85b5c; stroke:none;" d="M38 269L38 270L41 270L38 269M43 269L44 270L43 269z"/>
<path style="fill:#a5a4a4; stroke:none;" d="M49 269L50 270L49 269z"/>
<path style="fill:#31211f; stroke:none;" d="M50.2245 270.086C45.2575 272.67 48.5827 281.131 53.686 277.953C57.6961 275.456 55.0522 267.575 50.2245 270.086z"/>
<path style="fill:#a5a4a4; stroke:none;" d="M54 269L55 270L54 269z"/>
<path style="fill:#a85b5c; stroke:none;" d="M59 269L60 270L59 269z"/>
<path style="fill:#31211f; stroke:none;" d="M60 269L58 282L59 282L59 279L67 282L68 282L68 269L65 278L61 278L60 269z"/>
<path style="fill:#a85b5c; stroke:none;" d="M61 269L61 270L67 270L61 269z"/>
<path style="fill:#a5a4a4; stroke:none;" d="M68 269L69 270L68 269z"/>
<path style="fill:#31211f; stroke:none;" d="M74 269L70 279L72 277C74.4575 276.547 76 276.167 76 279L80 279L76 269L74 269z"/>
<path style="fill:#a5a4a4; stroke:none;" d="M76 269L77 270L76 269z"/>
<path style="fill:#31211f; stroke:none;" d="M87 269L87 270L93 279L94 279L97 272L98 272L96 278L96 279L101 279L101 270L101 269C97.17 269.658 96.1135 271.37 95 275L93 275C91.9854 271.236 90.922 269.648 87 269z"/>
<path style="fill:#a5a4a4; stroke:none;" d="M91 269L92 270L91 269M105 269L106 270L105 269z"/>
<path style="fill:#31211f; stroke:none;" d="M106.225 270.086C101.257 272.67 104.583 281.131 109.686 277.953C113.696 275.456 111.052 267.575 106.225 270.086z"/>
<path style="fill:#a5a4a4; stroke:none;" d="M110 269L111 270L110 269z"/>
<path style="fill:#a85b5c; stroke:none;" d="M117 269L118 270L117 269z"/>
<path style="fill:#31211f; stroke:none;" d="M123 279L123 278C118.575 276.712 115.861 271.75 122 271C115.597 266.625 112.137 278.646 123 279z"/>
<path style="fill:#a85b5c; stroke:none;" d="M121 269L121 272C123.006 270.873 123.006 270.127 121 269z"/>
<path style="fill:#31211f; stroke:none;" d="M124 269L124 270C126.165 272.872 126.165 275.128 124 278L124 279L129 279L129 269L124 269z"/>
<path style="fill:#a85b5c; stroke:none;" d="M126.667 269.333L127.333 269.667L126.667 269.333z"/>
<path style="fill:#a5a4a4; stroke:none;" d="M129 269L128 271L129 269z"/>
<path style="fill:#a85b5c; stroke:none;" d="M130 269L130 270L134 271L134 270L130 269z"/>
<path style="fill:#31211f; stroke:none;" d="M133 269L134 270L133 269z"/>
<path style="fill:#a5a4a4; stroke:none;" d="M134 269L135 270L134 269M136 269L137 270L136 269z"/>
<path style="fill:#31211f; stroke:none;" d="M137 269L137 279C141.396 278.948 146.457 278.174 143 273L145 271L137 269z"/>
<path style="fill:#a85b5c; stroke:none;" d="M138.667 269.333L139.333 269.667L138.667 269.333z"/>
<path style="fill:#a5a4a4; stroke:none;" d="M143 269L144 270L143 269z"/>
<path style="fill:#31211f; stroke:none;" d="M147 269C148.464 272.481 149.341 274.845 147 278L147 279C152.24 278.981 160.012 274.504 151 273L152 269L147 269z"/>
<path style="fill:#a85b5c; stroke:none;" d="M148 269L148 270L151 270L148 269z"/>
<path style="fill:#a5a4a4; stroke:none;" d="M152 269L153 270L152 269M156 269L158 271L156 269z"/>
<path style="fill:#31211f; stroke:none;" d="M157 269L157 279L162 279L162 278C159.835 275.128 159.835 272.872 162 270L162 269L157 269z"/>
<path style="fill:#a85b5c; stroke:none;" d="M158.667 269.333L159.333 269.667L158.667 269.333z"/>
<path style="fill:#a5a4a4; stroke:none;" d="M26 270L27 271L26 270M30 270L31 271L30 270M37 270L38 271L37 270z"/>
<path style="fill:#a85b5c; stroke:none;" d="M41 270L42 271L41 270M48 270L49 271L48 270z"/>
<path style="fill:#a5a4a4; stroke:none;" d="M51 270L50 272L51 270z"/>
<path style="fill:#a85b5c; stroke:none;" d="M52 270L54 272L52 270z"/>
<path style="fill:#a5a4a4; stroke:none;" d="M55 270L56 271L55 270M60 270L61 271L60 270M67 270L68 271L67 270M73 270L74 271L73 270z"/>
<path style="fill:#a85b5c; stroke:none;" d="M88 270L89 271L88 270z"/>
<path style="fill:#a5a4a4; stroke:none;" d="M96 270L97 271L96 270z"/>
<path style="fill:#a85b5c; stroke:none;" d="M99 270L99 273L100 273L99 270z"/>
<path style="fill:#a5a4a4; stroke:none;" d="M100 270L101 271L100 270z"/>
<path style="fill:#a85b5c; stroke:none;" d="M104 270L105 271L104 270M107.667 270.333L108.333 270.667L107.667 270.333M111 270L112 271L111 270M119 270L120 271L119 270z"/>
<path style="fill:#a5a4a4; stroke:none;" d="M124 270L125 277L126 277L124 270z"/>
<path style="fill:#a85b5c; stroke:none;" d="M125 270L126 271L125 270z"/>
<path style="fill:#fdfdfd; stroke:none;" d="M129 270L128 274L129 274L131 270L129 270z"/>
<path style="fill:#31211f; stroke:none;" d="M131 270C129.287 274.64 130.058 277.531 135 279L130 274L130 273L133 270L131 270z"/>
<path style="fill:#a85b5c; stroke:none;" d="M137 270L138 271L137 270M140 270L141 271L140 270M144 270L145 271L144 270z"/>
<path style="fill:#a5a4a4; stroke:none;" d="M147 270L148 271L147 270M151 270L152 271L151 270z"/>
<path style="fill:#a85b5c; stroke:none;" d="M160 270L161 271L160 270z"/>
<path style="fill:#a5a4a4; stroke:none;" d="M161 270L162 271L161 270M20 271L20 278L21 278L20 271z"/>
<path style="fill:#a85b5c; stroke:none;" d="M24 271L25 272L24 271z"/>
<path style="fill:#fdfdfd; stroke:none;" d="M29 271L29 277L32 277L32 271L29 271z"/>
<path style="fill:#a5a4a4; stroke:none;" d="M34 271L35 272L34 271M40 271L40 274L41 274L40 271z"/>
<path style="fill:#fdfdfd; stroke:none;" d="M41 271L41 274L43 273L43 272L41 271z"/>
<path style="fill:#a5a4a4; stroke:none;" d="M42 271L43 272L42 271M45 271L45 274L46 274L45 271M47 271L48 272L47 271z"/>
<path style="fill:#fdfdfd; stroke:none;" d="M51 271L50 277C53.3973 275.865 53.5787 274.423 53 271L51 271M62 271L62 277L64 277L64 271L62 271z"/>
<path style="fill:#a5a4a4; stroke:none;" d="M64 271L64 277L61 276L65 278L64 271z"/>
<path style="fill:#a85b5c; stroke:none;" d="M73 271L74 272L73 271z"/>
<path style="fill:#a5a4a4; stroke:none;" d="M88 271L89 272L88 271M92 271L93 272L92 271M103 271L104 272L103 271M106 271L107 272L106 271z"/>
<path style="fill:#fdfdfd; stroke:none;" d="M107 271L106 277C109.422 275.864 109.784 274.43 109 271L107 271z"/>
<path style="fill:#a5a4a4; stroke:none;" d="M109 271L110 272L109 271M130 271L131 272L130 271M132 271L133 272L132 271M137 271L137 278L138 278L137 271z"/>
<path style="fill:#fdfdfd; stroke:none;" d="M140 271C140.013 274.194 139.597 276.271 143 277L141 275L142 271L140 271z"/>
<path style="fill:#a85b5c; stroke:none;" d="M142.333 271.667L142.667 272.333L142.333 271.667M148 271L148 278L149 278L148 271z"/>
<path style="fill:#a5a4a4; stroke:none;" d="M160 271L160 277L161 277L160 271M25 272L25 276L26 276L25 272M28 272L28 277L29 277L28 272z"/>
<path style="fill:#a85b5c; stroke:none;" d="M47 272L48 273L47 272z"/>
<path style="fill:#a5a4a4; stroke:none;" d="M53 272L54 273L53 272M56 272L56 276L57 276L56 272M60 272L60 275L61 275L60 272z"/>
<path style="fill:#fdfdfd; stroke:none;" d="M74 272L74 275L75 275L74 272z"/>
<path style="fill:#a85b5c; stroke:none;" d="M77 272L78 273L77 272M88 272L88 274L90 272L88 272M92 272L93 273L92 272z"/>
<path style="fill:#a5a4a4; stroke:none;" d="M95 272L96 273L95 272z"/>
<path style="fill:#a85b5c; stroke:none;" d="M97 272L97 278L98 278L97 272M103 272L104 273L103 272z"/>
<path style="fill:#a5a4a4; stroke:none;" d="M112 272L113 273L112 272M117 272L117 276L118 276L117 272M122 272L123 273L122 272M131 272L132 273L131 272M144 272L145 273L144 272z"/>
<path style="fill:#a85b5c; stroke:none;" d="M32 273L32 276L33 276L32 273z"/>
<path style="fill:#a5a4a4; stroke:none;" d="M42 273L43 274L42 273M72 273L73 274L72 273M89 273L89 278L90 278L91 273L89 273M96 273L97 274L96 273z"/>
<path style="fill:#a85b5c; stroke:none;" d="M112.333 273.667L112.667 274.333L112.333 273.667z"/>
<path style="fill:#a5a4a4; stroke:none;" d="M114 273L114 276L115 276L114 273M130 273L131 274L130 273z"/>
<path style="fill:#a85b5c; stroke:none;" d="M143 273L144 274L143 273M44 274L45 275L44 274z"/>
<path style="fill:#a5a4a4; stroke:none;" d="M73 274L74 275L73 274M75 274L76 275L75 274M78 274L79 275L78 274z"/>
<path style="fill:#31211f; stroke:none;" d="M88 274L87 279L90 279L90 278L88 274z"/>
<path style="fill:#a5a4a4; stroke:none;" d="M93 274L94 275L93 274M128 274L129 275L128 274M131 274L132 275L131 274M141 274L142 275L141 274z"/>
<path style="fill:#a85b5c; stroke:none;" d="M142 274L143 275L142 274z"/>
<path style="fill:#a5a4a4; stroke:none;" d="M151 274L151 275L151 277L151 278L154 277L154 275L151 274z"/>
<path style="fill:#a85b5c; stroke:none;" d="M40 275L41 276L40 275z"/>
<path style="fill:#a5a4a4; stroke:none;" d="M41.6667 275.333L42.3333 275.667L41.6667 275.333z"/>
<path style="fill:#a85b5c; stroke:none;" d="M61 275L62 276L61 275z"/>
<path style="fill:#a5a4a4; stroke:none;" d="M71 275L72 276L71 275z"/>
<path style="fill:#a85b5c; stroke:none;" d="M91 275L92 276L91 275z"/>
<path style="fill:#a5a4a4; stroke:none;" d="M95 275L96 276L95 275M112 275L113 276L112 275z"/>
<path style="fill:#a85b5c; stroke:none;" d="M129 275L130 276L129 275z"/>
<path style="fill:#a5a4a4; stroke:none;" d="M145 275L145 278L146 278L145 275z"/>
<path style="fill:#fdfdfd; stroke:none;" d="M151 275L151 277L153 277L153 275L151 275z"/>
<path style="fill:#a5a4a4; stroke:none;" d="M156.333 275.667L156.667 276.333L156.333 275.667z"/>
<path style="fill:#a85b5c; stroke:none;" d="M34 276L35 277L34 276z"/>
<path style="fill:#a5a4a4; stroke:none;" d="M40.3333 276.667L40.6667 277.333L40.3333 276.667z"/>
<path style="fill:#a85b5c; stroke:none;" d="M47 276L48 277L47 276z"/>
<path style="fill:#a5a4a4; stroke:none;" d="M53 276L54 277L53 276M59 276L60 277L59 276z"/>
<path style="fill:#a85b5c; stroke:none;" d="M71 276L72 277L71 276M103 276L104 277L103 276z"/>
<path style="fill:#a5a4a4; stroke:none;" d="M109 276L110 277L109 276M29.6667 277.333L30.3333 277.667L29.6667 277.333z"/>
<path style="fill:#a85b5c; stroke:none;" d="M31 277L32 278L31 277z"/>
<path style="fill:#a5a4a4; stroke:none;" d="M51.6667 277.333L52.3333 277.667L51.6667 277.333z"/>
<path style="fill:#a85b5c; stroke:none;" d="M55 277L56 278L55 277z"/>
<path style="fill:#a5a4a4; stroke:none;" d="M58 277L59 278L58 277M67 277L68 278L67 277M72 277L73 278L72 277M76 277L77 278L76 277z"/>
<path style="fill:#a85b5c; stroke:none;" d="M79 277L80 278L79 277M92 277L93 278L92 277M94 277L95 278L94 277z"/>
<path style="fill:#a5a4a4; stroke:none;" d="M107.667 277.333L108.333 277.667L107.667 277.333z"/>
<path style="fill:#a85b5c; stroke:none;" d="M111 277L112 278L111 277M115 277L116 278L115 277z"/>
<path style="fill:#a5a4a4; stroke:none;" d="M119.667 277.333L120.333 277.667L119.667 277.333z"/>
<path style="fill:#a85b5c; stroke:none;" d="M121 277L122 278L121 277z"/>
<path style="fill:#a5a4a4; stroke:none;" d="M122 277L123 278L122 277z"/>
<path style="fill:#a85b5c; stroke:none;" d="M125 277L126 278L125 277z"/>
<path style="fill:#a5a4a4; stroke:none;" d="M140.667 277.333L141.333 277.667L140.667 277.333z"/>
<path style="fill:#a85b5c; stroke:none;" d="M160 277L161 278L160 277z"/>
<path style="fill:#a5a4a4; stroke:none;" d="M33 278L34 279L33 278M36 278L37 279L36 278M48 278L49 279L48 278z"/>
<path style="fill:#a85b5c; stroke:none;" d="M54 278L55 279L54 278z"/>
<path style="fill:#a5a4a4; stroke:none;" d="M57 278L57 282L58 282L57 278z"/>
<path style="fill:#a85b5c; stroke:none;" d="M68 278L69 279L68 278z"/>
<path style="fill:#a5a4a4; stroke:none;" d="M69 278L70 279L69 278M73 278L74 279L73 278M75 278L76 279L75 278M80 278L81 279L80 278M86 278L87 279L86 278z"/>
<path style="fill:#a85b5c; stroke:none;" d="M90 278L91 279L90 278z"/>
<path style="fill:#a5a4a4; stroke:none;" d="M101 278L102 279L101 278M104 278L105 279L104 278z"/>
<path style="fill:#a85b5c; stroke:none;" d="M110 278L111 279L110 278M116 278L117 279L116 278z"/>
<path style="fill:#a5a4a4; stroke:none;" d="M129 278L130 279L129 278M131 278L132 279L131 278z"/>
<path style="fill:#a85b5c; stroke:none;" d="M136 278L137 279L136 278z"/>
<path style="fill:#a5a4a4; stroke:none;" d="M144 278L145 279L144 278M156 278L157 279L156 278M29 279L29 280L32 280L29 279M50 279L50 280L53 280L50 279M59 279L60 280L59 279z"/>
<path style="fill:#fdfdfd; stroke:none;" d="M59 282L67 282C64.7324 278.505 61.2676 278.505 59 282z"/>
<path style="fill:#a5a4a4; stroke:none;" d="M66 279L67 280L66 279M68 279L68 282L69 282L68 279M106 279L106 280L109 280L106 279M118 279L118 280L121 280L118 279M132.667 279.333L133.333 279.667L132.667 279.333z"/>
</svg>
