<?xml version="1.0" encoding="UTF-8"?>
<svg xmlns="http://www.w3.org/2000/svg" viewBox="0 0 123.89 44.32"><defs><style>.cls-1{fill:#b72025;}.cls-2{fill:#ec1f2b;}.cls-3{fill:#8a171a;}.cls-4{fill:#6c0d0e;}.cls-5{fill:none;}.cls-6{fill:#861619;}.cls-7{fill:#6f6f6f;}</style></defs><title>ДИТ_1</title><g id="Слой_2" data-name="Слой 2"><g id="Слой_1-2" data-name="Слой 1"><path class="cls-1" d="M34.62,20.17H28.46L25,23.67l-3.51-3.5H1.5A2.23,2.23,0,0,1,0,19.58V30.93a2.23,2.23,0,0,0,1.5.58H7.88L11.39,35l3.5-3.51H34.62a2.26,2.26,0,0,0,2.26-2.26V17.9A2.27,2.27,0,0,1,34.62,20.17Z"/><path class="cls-2" d="M0,0V19.58a2.23,2.23,0,0,0,1.5.59h20L25,23.67l3.5-3.5h6.16a2.27,2.27,0,0,0,2.26-2.27V0Z"/><path class="cls-3" d="M34.62,31.51H14.89L11.39,35,7.88,31.51H1.5A2.23,2.23,0,0,1,0,30.93v7.62a2.26,2.26,0,0,0,2.26,2.26H14.93l3.51,3.51L22,40.81H34.62a2.26,2.26,0,0,0,2.26-2.26v-9.3A2.26,2.26,0,0,1,34.62,31.51Z"/><path class="cls-4" d="M34.62,31.51H14.89L11.39,35,7.88,31.51H1.5A2.23,2.23,0,0,1,0,30.93v.68a2.23,2.23,0,0,0,1.5.58H7.88l3.51,3.51,3.5-3.51H34.62a2.26,2.26,0,0,0,2.26-2.26v-.68A2.26,2.26,0,0,1,34.62,31.51Z"/><path class="cls-5" d="M0,19.58a2.23,2.23,0,0,0,1.5.59h20L25,23.67l3.5-3.5h6.16a2.27,2.27,0,0,0,2.26-2.27V0H0Z"/><path class="cls-6" d="M34.62,20.17H28.46L25,23.67l-3.51-3.5H1.5A2.23,2.23,0,0,1,0,19.58v.74a2.23,2.23,0,0,0,1.5.59h20L25,24.42l3.5-3.51h6.16a2.26,2.26,0,0,0,2.26-2.26V17.9A2.27,2.27,0,0,1,34.62,20.17Z"/><path d="M46.91,2.61h3.63V7H51V9h-.89V7.87H46.81V9h-.89V7h.45a4.82,4.82,0,0,0,.43-1.57,19.76,19.76,0,0,0,.11-2.26Zm1,.88A10.22,10.22,0,0,1,47.48,7h2V3.49Z"/><path d="M51.72,7.87V2.61h3.9V3.5H52.78V4.67h2.65v.88H52.78V7h2.95v.88Z"/><path d="M56.64,2.61h4.19V7.87H59.77V3.49H57.7V7.87H56.64Z"/><path d="M66.66,7.87H65.5L65,6.68h-2.1l-.43,1.19H61.38l2-5.26h1.12Zm-2-2.08L64,3.84l-.71,2Z"/><path d="M67.22,7.87V2.61h1.71a5.55,5.55,0,0,1,1.26.08A1.36,1.36,0,0,1,71,3.2a1.62,1.62,0,0,1,.31,1,1.67,1.67,0,0,1-.18.81,1.35,1.35,0,0,1-.45.52,1.43,1.43,0,0,1-.55.25,6,6,0,0,1-1.1.08h-.69v2ZM68.29,3.5V5h.58a2.94,2.94,0,0,0,.84-.08.7.7,0,0,0,.45-.67A.63.63,0,0,0,70,3.77a.74.74,0,0,0-.42-.24,6.28,6.28,0,0,0-.77,0Z"/><path d="M73.22,7.87V3.5H71.66V2.61h4.18V3.5H74.28V7.87Z"/><path d="M80.81,7.87H79.65l-.46-1.19h-2.1l-.43,1.19H75.53l2-5.26H78.7Zm-2-2.08-.72-1.95-.71,2Z"/><path d="M81.36,7.87V2.61H83l1,3.59.94-3.59h1.6V7.87h-1V3.73l-1,4.14h-1l-1-4.14V7.87Z"/><path d="M87.5,7.87V2.61h3.91V3.5H88.56V4.67h2.65v.88H88.56V7h3v.88Z"/><path d="M92.41,7.87V2.61h1.06V4.68h2.09V2.61h1.06V7.87H95.56V5.57H93.47v2.3Z"/><path d="M98.9,7.87V3.5H97.34V2.61h4.19V3.5H100V7.87Z"/><path d="M46.5,12.23h1v3.5l2.13-3.5h1.06v5.26h-1V14.06l-2.13,3.43H46.5Z"/><path d="M51.77,17.49V12.23h1.06V14.3h2.09V12.23H56v5.26H54.92v-2.3H52.83v2.3Z"/><path d="M60.2,16.88v.61h-1v-.61a2.46,2.46,0,0,1-1.78-.62,2.13,2.13,0,0,1-.52-1.45,2,2,0,0,1,.55-1.46,2.49,2.49,0,0,1,1.75-.6v-.52h1v.52a2.46,2.46,0,0,1,1.78.62,2,2,0,0,1,.52,1.45A2,2,0,0,1,62,16.26,2.46,2.46,0,0,1,60.2,16.88Zm-1-.89V13.64a1.33,1.33,0,0,0-1,.3,1.23,1.23,0,0,0-.3.91C57.89,15.61,58.32,16,59.16,16Zm1,0a1.6,1.6,0,0,0,.72-.14.93.93,0,0,0,.43-.37,1.6,1.6,0,0,0,.12-.7c0-.76-.42-1.14-1.27-1.14Z"/><path d="M63.14,14.89a3.4,3.4,0,0,1,.24-1.35,2.7,2.7,0,0,1,.49-.72,2.14,2.14,0,0,1,.68-.47,2.9,2.9,0,0,1,1.14-.21,2.49,2.49,0,0,1,1.86.72,2.75,2.75,0,0,1,.7,2,2.75,2.75,0,0,1-.69,2,2.79,2.79,0,0,1-3.73,0A2.74,2.74,0,0,1,63.14,14.89Zm1.1,0a1.93,1.93,0,0,0,.41,1.35,1.41,1.41,0,0,0,2.09,0,2,2,0,0,0,.41-1.38,2,2,0,0,0-.4-1.35,1.47,1.47,0,0,0-2.11,0A2,2,0,0,0,64.24,14.86Z"/><path d="M69.08,17.49V12.23h1.7a6.44,6.44,0,0,1,1.27.08,1.44,1.44,0,0,1,.76.51,1.68,1.68,0,0,1,.3,1,1.8,1.8,0,0,1-.17.81,1.44,1.44,0,0,1-.45.52,1.5,1.5,0,0,1-.55.25,6.09,6.09,0,0,1-1.11.08h-.69v2Zm1.06-4.37v1.49h.58a2.61,2.61,0,0,0,.84-.08.72.72,0,0,0,.29-1.14.73.73,0,0,0-.43-.23,4.28,4.28,0,0,0-.77,0Z"/><path d="M73.87,17.49V12.23h1.59l1,3.59.94-3.59H79v5.26H78V13.35l-1,4.14h-1l-1-4.14v4.14Z"/><path d="M84.76,17.49H83.6l-.45-1.19H81l-.43,1.19H79.48l2-5.26h1.12Zm-2-2.08-.72-1.95-.71,1.95Z"/><path d="M85.34,12.23h1.07v4.38h2.06V12.23h1.06v4.38H90v2h-.88V17.49H85.34Z"/><path d="M90.71,12.23h1v3.5l2.13-3.5H94.9v5.26h-1V14.06l-2.12,3.43H90.71Z"/><path d="M95.77,14.89A3.4,3.4,0,0,1,96,13.54a2.48,2.48,0,0,1,.49-.72,2,2,0,0,1,.68-.47,2.88,2.88,0,0,1,1.13-.21,2.49,2.49,0,0,1,1.87.72,2.79,2.79,0,0,1,.7,2,2.76,2.76,0,0,1-.7,2,2.78,2.78,0,0,1-3.72,0A2.74,2.74,0,0,1,95.77,14.89Zm1.09,0a1.93,1.93,0,0,0,.42,1.35,1.33,1.33,0,0,0,1,.47,1.35,1.35,0,0,0,1-.46,2,2,0,0,0,.41-1.38,2,2,0,0,0-.4-1.35,1.36,1.36,0,0,0-1-.44,1.34,1.34,0,0,0-1.06.45A2,2,0,0,0,96.86,14.86Z"/><path d="M101.71,17.49V12.23h1.06V14.3h2.08V12.23h1.07v5.26h-1.07v-2.3h-2.08v2.3Z"/><path d="M107,17.49V12.23h1.06V14.3h2.09V12.23h1.06v5.26h-1.06v-2.3h-2.09v2.3Z"/><path d="M112.36,12.23h1.06v2.1h1.42a2.56,2.56,0,0,1,1,.16,1.4,1.4,0,0,1,.67.54,1.57,1.57,0,0,1,.27.91,1.53,1.53,0,0,1-.9,1.43,3.26,3.26,0,0,1-1,.12h-2.48Zm1.06,4.38h1a3.44,3.44,0,0,0,.69-.05.63.63,0,0,0,.35-.22.6.6,0,0,0,.15-.42.61.61,0,0,0-.25-.53,1.75,1.75,0,0,0-.9-.17h-1.08Zm3.94-4.38h1.07v5.26h-1.07Z"/><path d="M119,17.49l1.8-2.74-1.63-2.52h1.25l1,1.69,1-1.69h1.23l-1.64,2.56,1.8,2.7h-1.28l-1.17-1.82-1.17,1.82Z"/><path d="M47.67,27.12V22.74H46.1v-.89h4.19v.89H48.73v4.38Z"/><path d="M51,27.12V21.85h3.91v.89H52v1.17h2.64v.89H52v1.43H55v.89Z"/><path d="M55.34,27.12l1.8-2.75-1.63-2.52h1.25l1.05,1.69,1-1.69h1.23l-1.64,2.56,1.8,2.71H59l-1.17-1.83-1.17,1.83Z"/><path d="M60.79,27.12V21.85h1.06v2.07h2.09V21.85H65v5.27H63.94V24.81H61.85v2.31Z"/><path d="M65.88,24.52a3.33,3.33,0,0,1,.24-1.35,2.75,2.75,0,0,1,.49-.73,2.14,2.14,0,0,1,.68-.47,2.9,2.9,0,0,1,1.14-.21,2.49,2.49,0,0,1,1.86.72,2.75,2.75,0,0,1,.7,2,2.78,2.78,0,0,1-.69,2,2.78,2.78,0,0,1-3.73,0A2.73,2.73,0,0,1,65.88,24.52Zm1.1,0a2,2,0,0,0,.41,1.36,1.37,1.37,0,0,0,1,.46,1.35,1.35,0,0,0,1-.46,2,2,0,0,0,.41-1.37,1.93,1.93,0,0,0-.4-1.35,1.32,1.32,0,0,0-1-.45,1.35,1.35,0,0,0-1.06.45A2,2,0,0,0,67,24.48Z"/><path d="M72,21.85H75.7v5.27H74.64V22.74H73.05V25A10.25,10.25,0,0,1,73,26.34a.93.93,0,0,1-.32.59,1.12,1.12,0,0,1-.78.22c-.12,0-.35,0-.68,0v-.82h.24a.8.8,0,0,0,.45-.09c.08-.06.12-.2.12-.44V21.85Z"/><path d="M76.58,24.52a3.33,3.33,0,0,1,.24-1.35,2.53,2.53,0,0,1,.49-.73A2.14,2.14,0,0,1,78,22a2.9,2.9,0,0,1,1.14-.21,2.49,2.49,0,0,1,1.86.72,2.79,2.79,0,0,1,.7,2,2.74,2.74,0,0,1-.7,2,2.45,2.45,0,0,1-1.85.72,2.49,2.49,0,0,1-1.87-.72A2.73,2.73,0,0,1,76.58,24.52Zm1.1,0a2,2,0,0,0,.41,1.36,1.42,1.42,0,0,0,2.09,0,2,2,0,0,0,.41-1.37,1.93,1.93,0,0,0-.4-1.35,1.32,1.32,0,0,0-1-.45,1.35,1.35,0,0,0-1.06.45A2,2,0,0,0,77.68,24.48Z"/><path d="M82.57,21.85h3.57v.88H83.63v4.39H82.57Z"/><path d="M86.7,21.85h1v3.51l2.13-3.51h1.06v5.27h-1V23.68l-2.13,3.44H86.7Z"/><path d="M92,21.85h1v3.51l2.14-3.51h1v5.27h-1V23.68l-2.13,3.44H92Zm2.73-1.31h.49a1.15,1.15,0,0,1-.34.77,1.23,1.23,0,0,1-1.56,0,1.15,1.15,0,0,1-.34-.77h.49a.6.6,0,0,0,.18.39.71.71,0,0,0,.45.13.75.75,0,0,0,.45-.13A.6.6,0,0,0,94.72,20.54Z"/><polygon class="cls-7" points="49.84 34.79 46.37 34.79 46.37 40.01 47.27 40.01 47.27 35.62 49.84 35.62 49.84 34.79"/><path class="cls-7" d="M53.25,35a2.54,2.54,0,0,0-1.31-.34,2.37,2.37,0,0,0-1.8.74,2.81,2.81,0,0,0-.7,2,3,3,0,0,0,.29,1.3,2.34,2.34,0,0,0,.89,1,2.47,2.47,0,0,0,1.32.36,2.66,2.66,0,0,0,1.27-.32,2.31,2.31,0,0,0,.92-1,3.27,3.27,0,0,0,0-2.8A2.28,2.28,0,0,0,53.25,35Zm.27,2.36a2.07,2.07,0,0,1-.44,1.41,1.5,1.5,0,0,1-1.14.48,1.44,1.44,0,0,1-1.13-.48,1.89,1.89,0,0,1-.45-1.34A2.06,2.06,0,0,1,50.82,36,1.58,1.58,0,0,1,52,35.51a1.45,1.45,0,0,1,.82.23,1.43,1.43,0,0,1,.56.65A2.46,2.46,0,0,1,53.52,37.4Z"/><path class="cls-7" d="M58.15,35.09a1.49,1.49,0,0,0-.66-.25,4,4,0,0,0-.78-.05h-2V40h.9V38h1.16a2.09,2.09,0,0,0,1.55-.48,1.67,1.67,0,0,0,.43-1.16,1.6,1.6,0,0,0-.16-.73A1.3,1.3,0,0,0,58.15,35.09ZM57.61,37a1.27,1.27,0,0,1-.83.21H55.61V35.62h1.15a2.56,2.56,0,0,1,.59,0,.65.65,0,0,1,.35.24.79.79,0,0,1,.13.47A.75.75,0,0,1,57.61,37Z"/><path class="cls-7" d="M63.9,37.41A3.09,3.09,0,0,0,63.6,36a2.41,2.41,0,0,0-.89-1,2.54,2.54,0,0,0-1.31-.34,2.41,2.41,0,0,0-1.81.74,2.85,2.85,0,0,0-.7,2,2.89,2.89,0,0,0,.3,1.3,2.34,2.34,0,0,0,.89,1,2.44,2.44,0,0,0,1.32.36,2.69,2.69,0,0,0,1.27-.32,2.22,2.22,0,0,0,.91-1A3.11,3.11,0,0,0,63.9,37.41Zm-.92,0a2,2,0,0,1-.45,1.41,1.48,1.48,0,0,1-1.14.48,1.43,1.43,0,0,1-1.12-.48,1.85,1.85,0,0,1-.46-1.34A2.06,2.06,0,0,1,60.28,36a1.55,1.55,0,0,1,1.12-.44,1.46,1.46,0,0,1,.83.23,1.49,1.49,0,0,1,.56.65A2.46,2.46,0,0,1,63,37.4Z"/><path class="cls-7" d="M67.74,34.79H64.46v.84a7.62,7.62,0,0,1-.55,3.55h-.44v2h.83V40h3.06v1.17h.83v-2h-.45Zm-.9.83v3.56h-2a5.71,5.71,0,0,0,.38-1.68,17,17,0,0,0,.12-1.75v-.13Z"/><path class="cls-7" d="M70.4,34.79l-2,5.22h1l.55-1.51h1.91L72.4,40h1l-2.14-5.22Zm-.22,2.94.48-1.31a4.27,4.27,0,0,0,.18-.54c.06.19.13.4.22.63l.46,1.22Z"/><path class="cls-7" d="M78.16,38.34c-.06.16-.11.31-.15.44l-.13-.38-1.2-3.61h-1.2V40h.87V36.38L77.59,40h.77l1.24-3.58V40h.87V34.79H79.38Z"/><path class="cls-7" d="M84.81,35a2.47,2.47,0,0,0-1.3-.34,2.38,2.38,0,0,0-1.81.74,2.81,2.81,0,0,0-.7,2,2.89,2.89,0,0,0,.3,1.3,2.32,2.32,0,0,0,.88,1,2.47,2.47,0,0,0,1.32.36,2.66,2.66,0,0,0,1.27-.32,2.25,2.25,0,0,0,.92-1A3.11,3.11,0,0,0,86,37.41,3,3,0,0,0,85.7,36,2.28,2.28,0,0,0,84.81,35Zm.28,2.36a2,2,0,0,1-.45,1.41,1.48,1.48,0,0,1-1.14.48,1.44,1.44,0,0,1-1.13-.48,1.89,1.89,0,0,1-.45-1.34A2.06,2.06,0,0,1,82.39,36a1.54,1.54,0,0,1,1.12-.44,1.51,1.51,0,0,1,.83.23,1.41,1.41,0,0,1,.55.65A2.46,2.46,0,0,1,85.09,37.4Z"/><path class="cls-7" d="M90.46,38.12A1.45,1.45,0,0,1,90,39a1.26,1.26,0,0,1-.86.29,1.58,1.58,0,0,1-.79-.21,1.31,1.31,0,0,1-.52-.65,3.09,3.09,0,0,1,0-2,1.37,1.37,0,0,1,.5-.68,1.48,1.48,0,0,1,.89-.25,1.22,1.22,0,0,1,.76.22,1.46,1.46,0,0,1,.46.73l0,.11.88-.21,0-.12a2.1,2.1,0,0,0-.75-1.13,2.18,2.18,0,0,0-1.34-.41,2.59,2.59,0,0,0-1.26.32A2.13,2.13,0,0,0,87,36a3,3,0,0,0-.31,1.41A3.59,3.59,0,0,0,87,38.75a2.21,2.21,0,0,0,.82,1,2.49,2.49,0,0,0,1.37.35,2.2,2.2,0,0,0,1.4-.45,2.38,2.38,0,0,0,.79-1.31l0-.12-.9-.22Z"/><path class="cls-7" d="M93.5,37.33l.22-.16a2.6,2.6,0,0,0,.45-.84,2.16,2.16,0,0,1,.33-.62.54.54,0,0,1,.39-.11h.38v-.78l-.08,0s0,0-.44,0a1.12,1.12,0,0,0-.6.16,1.07,1.07,0,0,0-.43.38,4.63,4.63,0,0,0-.35.71,2.9,2.9,0,0,1-.44.8.76.76,0,0,1-.44.14V34.79h-.9V40h.9V37.69a.63.63,0,0,1,.4.17,3.4,3.4,0,0,1,.55.74L94.31,40h1.11l-1.14-1.84A2.38,2.38,0,0,0,93.5,37.33Z"/><path class="cls-7" d="M99.39,37.21a1.2,1.2,0,0,0,.35-.36,1.24,1.24,0,0,0,.19-.67A1.34,1.34,0,0,0,99.12,35a2.37,2.37,0,0,0-1-.16h-2V40h2a4,4,0,0,0,.83-.08,1.61,1.61,0,0,0,.59-.27,1.3,1.3,0,0,0,.4-.51,1.5,1.5,0,0,0,.16-.7,1.31,1.31,0,0,0-.27-.83A1.38,1.38,0,0,0,99.39,37.21Zm-1.2,2H97.07V37.71h1a2.36,2.36,0,0,1,.69.08.61.61,0,0,1,.34.24.74.74,0,0,1,.12.42.69.69,0,0,1-.09.36A.52.52,0,0,1,99,39a.76.76,0,0,1-.33.12A2.93,2.93,0,0,1,98.19,39.18Zm.75-2.56a.57.57,0,0,1-.32.21,2.7,2.7,0,0,1-.6.05h-1V35.62h.87a3,3,0,0,1,.73.06.48.48,0,0,1,.27.21.64.64,0,0,1,.1.37A.57.57,0,0,1,98.94,36.62Z"/><rect class="cls-7" x="104.88" y="34.79" width="0.9" height="5.23"/><path class="cls-7" d="M102.5,36.92h-1.07V34.79h-.9V40h2a2,2,0,0,0,1.56-.47,1.63,1.63,0,0,0,0-2.15A2.11,2.11,0,0,0,102.5,36.92Zm-1.07.8h.76a4.32,4.32,0,0,1,.87.06.58.58,0,0,1,.37.23.65.65,0,0,1,.15.44.67.67,0,0,1-.24.58,1.44,1.44,0,0,1-.83.18h-1.08Z"/></g></g></svg>